<svg width="697" height="239" viewBox="0 0 697 239" fill="#fff"
  xmlns="http://www.w3.org/2000/svg">
  <path fill-rule="evenodd" clip-rule="evenodd" d="M153 110L158.5 110.003L158.194 96.34C157.653 72.205 160.194 60.863 167.323 55.589C170.972 52.889 181.291 52.65 185.145 55.175C190.436 58.643 191 61.696 191 86.901V110H197.156L196.828 85.75C196.507 62.019 196.446 61.406 194 57.089C190.268 50.503 187.142 48.63 179.131 48.177C171.303 47.735 166.048 49.777 161.69 54.956C160.282 56.63 158.862 58 158.536 58C158.21 58 157.986 45.287 158.038 29.75L158.134 1.5L153 0.866997V110ZM90.417 10.917C90.188 11.146 90 12.383 90 13.667C90 15.991 90.048 16 103 16H116V110H121.98L122.5 16.5L148 15.94V10.5H119.417C103.696 10.5 90.646 10.688 90.417 10.917ZM686 237H697V38H686V237ZM419 48C419 48 418.348 55 418.348 59.25C417.813 64.92 417.415 66 415.862 66C413.64 66 408.87 72.326 406.336 78.632L404.5 83.203L393 82.634C380.236 82.004 381.25 83.069 395.25 85L404 86.207V92.643L349.75 92.378C317.053 92.219 297.288 92.459 300 92.983C302.475 93.461 309.895 93.885 316.49 93.926L328.48 94L325.74 96.54C322.491 99.553 322.205 103.205 325 106C330.952 111.952 339.998 103.075 334.345 96.829C332.774 95.092 332.856 95 335.985 95C337.937 95 339.834 95.713 340.64 96.75C341.907 98.379 342.071 98.384 343.009 96.823C343.833 95.453 345.068 95.246 349.759 95.691C352.916 95.99 356 96.858 356.61 97.618C358.058 99.42 359 99.373 359 97.5C359 96.5 360 96 362 96C365.363 96 366.049 97.493 363.046 98.278C361.971 98.559 360.788 99.995 360.419 101.468C358.908 107.486 364.55 111.877 369.931 108.873C373.15 107.074 373.966 101.725 371.444 98.939C369.801 97.123 369.916 97.084 375.124 97.696C378.195 98.057 381.036 99.008 381.75 99.914C382.888 101.358 383.115 101.352 384.29 99.846C385.323 98.521 386.427 98.347 389.83 98.969C392.167 99.396 394.339 100.006 394.657 100.324C395.859 101.526 396.274 110 395.13 110C394.509 110 394 111.35 394 113C394 116.138 394.854 116.746 396.687 114.913C397.47 114.13 397.962 114.13 398.446 114.913C398.816 115.511 399.541 116 400.059 116C401.506 116 401.114 111.735 399.468 109.559C398.11 107.763 397.341 100 398.522 100C398.809 100 402.072 101.428 405.772 103.172C415.33 107.679 423.058 107.652 432.981 103.078C437.869 100.825 440.493 100.093 441.187 100.787C442.389 101.989 441.28 110 439.912 110C439.41 110 439 111.35 439 113C439 116.005 440.431 117.098 441.292 114.75C441.658 113.75 442.015 113.75 443.075 114.75C445.171 116.727 446 116.231 446 113C446 111 445.5 110 444.5 110C442.635 110 442.515 105.516 444.288 102.013C445.951 98.726 452.823 97.301 454.812 99.831C456.035 101.387 456.21 101.383 457.402 99.778C458.231 98.66 460.756 97.821 464.59 97.388L470.5 96.722L468.25 99.175C465.375 102.311 465.396 105.083 468.314 107.826C471.047 110.393 473.716 110.587 476.777 108.443C479.732 106.374 479.865 100.557 477 98.768C474.161 96.995 474.521 96 478 96C480.149 96 481 96.479 481 97.689C481 99.11 481.323 99.031 483.039 97.189C485.678 94.356 495.391 93.97 496.422 96.657C496.986 98.128 497.284 98.072 499.068 96.157C500.173 94.971 502.185 94 503.539 94C506.331 94 506.706 95.169 504.5 97C502.562 98.608 502.587 101.965 504.557 104.777C506.519 107.579 511.967 107.799 514.345 105.171C516.407 102.892 516.485 98.628 514.5 96.643C513.675 95.818 513 94.886 513 94.571C513 94.257 516.038 93.997 519.75 93.994C530.734 93.984 543 92.778 543 91.708C543 91.061 536.958 90.936 525.75 91.35C516.263 91.701 492.075 92.012 472 92.041L435.5 92.094L435.847 89.297C436.038 87.759 436.28 86.408 436.384 86.297C436.488 86.185 440.832 85.55 446.037 84.887C451.242 84.224 456.175 83.284 457 82.799C458.402 81.975 456.529 82.061 440.5 83.552L435.5 84.017L431.75 76.122C428.712 69.729 427.333 67.912 424.5 66.567L421 64.906L420.882 57.703C420.817 53.741 420.42 49.15 420 47.5C419.262 44.601 419 48 419 48ZM222.36 50.021C215.568 52.712 208.971 59.803 206.05 67.551C204.206 72.441 203.884 74.924 204.242 81.5C204.75 90.81 207.25 96.955 212.897 102.774C218.225 108.265 223.222 110.365 232 110.802C242.235 111.311 249.11 108.728 255.393 102.011C260.411 96.647 260.859 95.349 258.335 93.503C256.915 92.465 255.849 93.121 251.085 97.961C246.914 102.198 244.291 103.969 240.727 104.954C232.268 107.291 221.723 104.649 216.299 98.835C213.453 95.784 210.26 88.456 209.834 84L209.5 80.5L262.805 79.968L262.321 75.734C261.07 64.806 254.945 55.071 246.628 50.793C240.601 47.692 229.154 47.328 222.36 50.021ZM239.499 54.104C245.323 55.571 251.727 61.217 254.626 67.444C255.921 70.225 256.985 73.063 256.99 73.75C256.998 74.715 251.639 75 233.5 75C210.298 75 210 74.973 210 72.901C210 66.568 218.4 56.865 225.878 54.563C231.637 52.789 233.965 52.711 239.499 54.104ZM0 66H47V237H59V66H106V55H0V66ZM118 123.946C107.286 125.95 97.138 131.773 89.191 140.476C68.305 163.349 69.105 202.282 90.91 224.11C101.511 234.722 112.408 239 128.843 239C148.186 239 163.677 230.795 174.402 214.87L177.966 209.577L173.381 206.723C170.86 205.154 168.675 204.012 168.526 204.185C168.376 204.358 167.509 205.966 166.597 207.758C163.716 213.424 154.205 222.009 147.156 225.308C136.162 230.452 119.292 230.203 108.5 224.737C94.715 217.756 85 202.318 85 187.395V182H133.5C171.635 182 181.999 181.733 181.996 180.75C181.994 180.063 181.366 175.643 180.601 170.929C176.972 148.571 162.843 130.876 144.324 125.492C137.717 123.571 124.235 122.779 118 123.946ZM223.728 124.327C218.67 125.9 213.427 130.258 209.901 135.818L207 140.392V125.462L196.5 125.812L195.983 237H206.879L207.236 195.75C207.548 159.681 207.814 153.833 209.353 149.19C213.445 136.846 225.554 130.182 236.121 134.459C237.312 134.941 238.44 133.925 240.371 130.63C241.817 128.162 243 125.94 243 125.691C243 124.882 234.209 122.998 230.807 123.077C228.988 123.119 225.803 123.682 223.728 124.327ZM285.5 123.609C277.792 125.549 270.094 130.493 267.009 135.486C265.814 137.419 264.508 139 264.105 139C263.703 139 263.385 136.021 263.398 132.379L263.422 125.759L252.999 125.5L253 237L263.5 236.999L263.556 200.249C263.604 168.258 263.841 162.664 265.386 157.044C267.66 148.776 269.248 145.772 274.162 140.441C279.295 134.871 285.868 132.529 294.231 133.287C302.936 134.077 308.638 137.902 312.491 145.537L315.5 151.5L316.117 237H327V202.442C327 158.124 328.303 149.547 336.312 141.162C342.89 134.275 354.201 131.343 363.983 133.99C369.54 135.493 376.248 141.922 378.085 147.503C379.063 150.479 379.489 162.424 379.749 194.25L380.099 237L390.5 237.001L390.273 196.25C390.135 171.515 389.607 153.155 388.93 149.533C385.436 130.85 372.09 121.414 352.03 123.446C340.927 124.57 332.38 129.547 326.821 138.127C325.084 140.807 323.557 143 323.427 143C323.296 143 322.039 141.037 320.633 138.637C317.415 133.145 312.008 128.361 306.213 125.877C301.788 123.98 289.409 122.625 285.5 123.609ZM490.344 123.977C488.058 124.465 484.322 125.815 482.042 126.979C477.761 129.162 469.642 136.607 466.751 141C465.158 143.419 465.103 143.208 465.053 134.5L465.001 125.5L454.966 125.755L454.5 237H464.791L465.275 201.75C465.807 162.927 466.339 158.773 472.178 147.817C477.731 137.399 488.071 132.213 501.109 133.306C514.819 134.455 521.656 140.984 523.949 155.117C524.531 158.705 524.988 178.03 524.992 199.25L525 237L535.5 237.002L534.941 193.751C534.364 149.18 534.181 147.169 529.973 139C527.44 134.084 521.317 128.459 515.894 126.066C510.585 123.724 496.809 122.597 490.344 123.977ZM595 124.048C591.975 124.569 585.866 126.779 581.424 128.96C563.097 137.957 553.415 153.932 552.307 177C550.586 212.86 573.074 239 605.644 239C621.786 239 634.036 233.992 644.031 223.307L650 216.927V237H660V125.5H650V145.051L644.25 139.198C637.736 132.568 631.998 128.924 623.433 125.977C616.524 123.6 602.952 122.679 595 124.048ZM416 237H426V125.5H416V237ZM144.483 136.845C153.115 140.885 158.308 145.211 163.053 152.318C166.09 156.865 171 168.783 171 171.605C171 171.822 151.592 172 127.872 172H84.744L85.405 167.869C86.533 160.814 91.003 152.852 97.428 146.451C110.668 133.261 128.879 129.543 144.483 136.845ZM616.932 134.546C632.448 138.203 644.489 149.958 648.641 165.5C650.465 172.329 650.353 187.848 648.426 195.284C644.898 208.899 635.841 220.49 624.712 225.631C619.012 228.263 617.552 228.5 607 228.5C592.019 228.5 586.472 226.449 577.628 217.639C567.448 207.498 562.965 196.526 562.863 181.5C562.766 167.215 566.657 156.752 575.708 146.959C586.715 135.048 600.919 130.771 616.932 134.546Z"/>
</svg>
