<svg width="auto" height="40px" viewBox="0 0 513 267" fill="none"
  xmlns="http://www.w3.org/2000/svg">
  <path fill-rule="evenodd" clip-rule="evenodd" d="M45 0.694998C30.351 2.341 14.306 13.393 7.27 26.684C0.712998 39.068 0.999998 34.16 0.999998 134.076C0.999998 221.623 1.069 225.011 2.977 231.145C8.036 247.412 22.429 261.243 38.644 265.418C44.153 266.836 66.728 267 257 267C447.272 267 469.847 266.836 475.356 265.418C491.571 261.243 505.964 247.412 511.023 231.145C512.931 225.011 513 221.623 513 134.076C513 53.968 512.813 42.728 511.405 37.932C506.515 21.286 495.216 9.349 478 2.643L472.5 0.499998L260.5 0.400999C143.9 0.346999 46.925 0.478998 45 0.694998ZM474.791 24.791C480.606 27.896 486.154 33.639 489.077 39.577L491.5 44.5V133.5V222.5L489.142 227.714C486.206 234.208 479.004 241.064 472.472 243.583C467.628 245.451 462.083 245.5 257 245.5C51.917 245.5 46.372 245.451 41.528 243.583C34.996 241.064 27.794 234.208 24.858 227.714L22.5 222.5L22.212 136C22.012 75.9 22.257 48.127 23.017 45C25.286 35.657 33.401 26.767 42.698 23.439C45.867 22.305 81.813 22.113 258.5 22.289L470.5 22.5L474.791 24.791ZM88 129.5V198H104.5H121V129.5V61H104.5H88V129.5ZM138 129.5V198H152.987H167.975L168.237 162.391L168.5 126.782L174.394 161.141C177.635 180.038 180.496 196.063 180.751 196.75C181.081 197.64 184.206 198 191.607 198C197.323 198 202.026 197.887 202.058 197.75C202.09 197.613 205.199 181.3 208.966 161.5L215.816 125.5L215.908 161.75L216 198H230H244V129.5V61H221.128H198.256L197.688 64.75C197.376 66.813 195.88 80.299 194.364 94.72C192.848 109.142 191.504 120.838 191.378 120.712C191.118 120.451 181 63.006 181 61.789C181 61.355 171.325 61 159.5 61H138V129.5ZM351 129.5V198H364.987H378.973L380.436 194.5C381.24 192.575 382.225 191 382.624 191C383.023 191 386.758 192.2 390.925 193.666C396.956 195.789 400.259 196.323 407.125 196.285C417.104 196.23 421.742 194.968 425.103 191.391L427.5 188.84L427.779 142.426C428.091 90.43 428.34 92.432 420.89 87.035C414.745 82.584 407.915 81.4 399.961 83.407C396.407 84.303 391.587 86.369 389.25 87.998L385 90.959V75.979V61H368H351V129.5ZM261 130.412V199L282.25 198.983C317.599 198.954 327.1 197.206 333.882 189.482C341.175 181.175 340.956 183.049 340.956 129C340.956 83.899 340.826 80.22 339.104 76.5C336.723 71.358 332.763 67.687 326.5 64.815C321.702 62.615 320.28 62.508 291.25 62.173L261 61.824V130.412ZM303.559 84.419C305.418 85.777 305.512 87.582 305.782 127.045C306.106 174.307 306.314 173 298.477 173H294V128V83H297.809C299.904 83 302.491 83.638 303.559 84.419ZM392.747 102.25C393.336 102.993 393.957 117.957 394.278 139.158C394.737 169.48 394.598 175.128 393.352 176.908C392.546 178.058 391.067 179 390.066 179C385.706 179 385.516 177.515 385.203 141.038C385.014 119.099 385.28 105.393 385.928 103.69C387.038 100.77 390.922 99.95 392.747 102.25Z" fill="white"/>
</svg>
