<?xml version="1.0" encoding="UTF-8"?>
<svg xmlns="http://www.w3.org/2000/svg"
  xmlns:xlink="http://www.w3.org/1999/xlink" viewBox="0 0 50 50" width="40px" height="40px">
  <g id="surface198985839">
    <path style=" stroke:none;fill-rule:nonzero;fill:rgb(100%,100%,100%);fill-opacity:1;" d="M 6.441406 0.640625 C 3.25 0.640625 0.640625 3.25 0.640625 6.441406 L 0.640625 43.558594 C 0.640625 46.75 3.25 49.359375 6.441406 49.359375 L 25.964844 49.359375 C 26.089844 49.378906 26.21875 49.378906 26.34375 49.359375 L 32.925781 49.359375 C 33.050781 49.378906 33.179688 49.378906 33.304688 49.359375 L 43.558594 49.359375 C 46.75 49.359375 49.359375 46.75 49.359375 43.558594 L 49.359375 6.441406 C 49.359375 3.25 46.75 0.640625 43.558594 0.640625 Z M 6.441406 2.960938 L 43.558594 2.960938 C 45.496094 2.960938 47.039062 4.503906 47.039062 6.441406 L 47.039062 43.558594 C 47.039062 45.496094 45.496094 47.039062 43.558594 47.039062 L 34.28125 47.039062 L 34.28125 30.800781 L 38.710938 30.800781 L 40.335938 22.679688 L 34.28125 22.679688 L 34.28125 20.359375 C 34.28125 19.714844 34.339844 19.664062 34.558594 19.523438 C 34.777344 19.378906 35.445312 19.199219 36.601562 19.199219 L 40.078125 19.199219 L 40.078125 12.667969 L 39.417969 12.351562 C 39.417969 12.351562 36.753906 11.078125 33.121094 11.078125 C 30.511719 11.078125 28.367188 12.121094 26.992188 13.835938 C 25.621094 15.550781 25 17.847656 25 20.359375 L 25 22.679688 L 21.519531 22.679688 L 21.519531 30.800781 L 25 30.800781 L 25 47.039062 L 6.441406 47.039062 C 4.503906 47.039062 2.960938 45.496094 2.960938 43.558594 L 2.960938 6.441406 C 2.960938 4.503906 4.503906 2.960938 6.441406 2.960938 Z M 33.121094 13.398438 C 35.53125 13.398438 37.050781 13.933594 37.761719 14.214844 L 37.761719 16.878906 L 36.601562 16.878906 C 35.265625 16.878906 34.195312 16.992188 33.292969 17.574219 C 32.394531 18.160156 31.960938 19.269531 31.960938 20.359375 L 31.960938 25 L 37.503906 25 L 36.808594 28.480469 L 31.960938 28.480469 L 31.960938 47.039062 L 27.320312 47.039062 L 27.320312 28.480469 L 23.839844 28.480469 L 23.839844 25 L 27.320312 25 L 27.320312 20.359375 C 27.320312 18.234375 27.859375 16.46875 28.804688 15.285156 C 29.753906 14.101562 31.089844 13.398438 33.121094 13.398438 Z M 33.121094 13.398438 "/>
  </g>
</svg>
